<?xml version="1.0" encoding="UTF-8"?>
<svg xmlns="http://www.w3.org/2000/svg" version="1.1" viewBox="0 0 1080 1080">
  <defs>
    <style>
      .cls-1 {
        fill: #005ae0;
      }
    </style>
  </defs>
  <!-- Generator: Adobe Illustrator 28.6.0, SVG Export Plug-In . SVG Version: 1.2.0 Build 709)  -->
  <g>
    <g id="Camada_1">
      <g>
        <path class="cls-1" d="M792.27,791.33c0,49.67-1.08,90.87.38,131.98.97,27.23-6.01,40.49-36.92,40.25-151.13-1.18-302.28-1.15-453.41-.01-30.03.23-38.82-11.33-37.75-39.45,1.62-42.37.42-84.85.42-132.76-37.13,0-68.53.78-99.88-.18-48.45-1.48-71.1-22.32-71.62-69.7-1.13-103.27-1.09-206.57-.03-309.84.49-47.71,23.05-68.97,70.83-70.37,31.39-.92,62.84-.17,100.69-.17,0-71.12,1.22-137.33-.54-203.46-.83-31.29,6.19-45.69,41.81-45.28,147.94,1.73,295.91,1.66,443.85.03,34.48-.38,43.74,11.91,42.76,44.36-1.99,66.2-.6,132.51-.6,204.34,37.05,0,68.44-.67,99.8.16,48.16,1.27,71.15,22.24,71.68,69.53,1.17,103.27,1.1,206.57.05,309.84-.48,47.59-23.04,68.98-70.86,70.55-31.39,1.03-62.83.19-100.67.19ZM792.26,760.65c38.35,0,68.5-1.47,98.45.39,34.52,2.14,43.54-14.27,43.16-45.8-1.2-100.1-1.39-200.23.07-300.32.49-33.92-13.34-44.14-45.47-43.63-85.9,1.35-171.83.43-257.74.43-152.74,0-305.48.06-458.22-.04-24.72-.02-49-1.88-48.76,34.71.67,106.46-.67,212.95,1.52,319.37.24,11.73,17.17,31.71,28.14,33.03,35.39,4.26,71.63,1.59,111.61,1.59,0-49.62,1-92.29-.37-134.87-.84-26.12,7.82-37.03,35.38-36.87,152.74.87,305.48.89,458.22,0,28.59-.17,35.06,12.78,34.35,37.87-1.2,42.51-.33,85.08-.33,134.15ZM298.58,929.44h459.97v-306.81h-459.97v306.81ZM758.61,126.6h-459.91v211.58h459.91V126.6Z"/>
        <path class="cls-1" d="M367.89,691.55c27.88,30.75,289.17,32.94,330.26,0h-330.26ZM689.23,852.67c-34.58-25.64-295.11-22.36-316.82,3.99,42.27,18.45,288.82,15.34,316.82-3.99ZM624.53,768.21h-266.54c40.03,29.86,222.81,30.36,266.54,0Z"/>
        <path class="cls-1" d="M875.23,468.21c-15.65,14.48-27.14,32.9-36.46,31.86-13.08-1.46-24.55-17.39-36.7-27.12,10.75-11.4,19.93-28.75,32.8-32.14,8.83-2.33,22.79,14.75,40.36,27.41Z"/>
        <path class="cls-1" d="M367.89,691.55h330.26c-41.09,32.94-302.38,30.75-330.26,0Z"/>
        <path class="cls-1" d="M689.23,852.67c-28,19.33-274.55,22.44-316.82,3.99,21.71-26.35,282.23-29.63,316.82-3.99Z"/>
        <path class="cls-1" d="M624.53,768.21c-43.73,30.36-226.52,29.86-266.54,0h266.54Z"/>
      </g>
    </g>
  </g>
</svg>